/* XPM */
static char *_b1e604927af4ff1ad427f56bf9e6ce99HbrLETc4BknUZ6X[] = {
/* columns rows colors chars-per-pixel */
"64 64 193 2 ",
"   c None",
".  c #0E0B0B",
"X  c #130D0D",
"o  c #190E0F",
"O  c #17100F",
"+  c #19100F",
"@  c #1B0F10",
"#  c #161110",
"$  c #1C1312",
"%  c #1F1816",
"&  c #270B0E",
"*  c #231314",
"=  c #2A1314",
"-  c #2E1718",
";  c #251C19",
":  c #2C1C1B",
">  c #3A1417",
",  c #341719",
"<  c #341A1B",
"1  c #3A1A1C",
"2  c #2B221E",
"3  c #2F2621",
"4  c #312622",
"5  c #3C2322",
"6  c #342A25",
"7  c #332C29",
"8  c #3B2D29",
"9  c #36302C",
"0  c #3D322D",
"q  c #480C12",
"w  c #520E14",
"e  c #5D0E16",
"r  c #46161B",
"t  c #441A1E",
"y  c #5B131B",
"u  c #690A14",
"i  c #7A0918",
"p  c #65131E",
"a  c #481E22",
"s  c #571821",
"d  c #651C23",
"f  c #781727",
"g  c #442525",
"h  c #4C2124",
"j  c #432E2B",
"k  c #562529",
"l  c #5B252A",
"z  c #42332D",
"x  c #443631",
"c  c #4D3734",
"v  c #463B33",
"b  c #493E36",
"n  c #483E3D",
"m  c #543333",
"M  c #67242D",
"N  c #71222B",
"B  c #692D34",
"V  c #742D34",
"C  c #663337",
"Z  c #79383F",
"A  c #4C423C",
"S  c #53473D",
"D  c #6E3C42",
"F  c #4C4442",
"G  c #4F4845",
"H  c #564B42",
"J  c #594C43",
"K  c #5D534C",
"L  c #5B5452",
"P  c #674947",
"I  c #64554D",
"U  c #655C57",
"Y  c #6A5D54",
"T  c #6A6057",
"R  c #6C625A",
"E  c #72665D",
"W  c #746B62",
"Q  c #7A6C66",
"!  c #7B736C",
"~  c #7E7978",
"^  c #820814",
"/  c #850A17",
"(  c #980614",
")  c #A70515",
"_  c #B90417",
"`  c #850D26",
"'  c #970C25",
"]  c #921524",
"[  c #AF0D2F",
"{  c #BC0C26",
"}  c #A11935",
"|  c #BA1733",
" . c #822F38",
".. c #C60015",
"X. c #C2031C",
"o. c #C9011A",
"O. c #D0021D",
"+. c #C90927",
"@. c #CB0A26",
"#. c #D30224",
"$. c #D7062B",
"%. c #C9132D",
"&. c #D6102D",
"*. c #CA0C33",
"=. c #DC0632",
"-. c #D80A35",
";. c #DD0A3C",
":. c #CD1435",
">. c #C7173B",
",. c #D51539",
"<. c #962546",
"1. c #8B3943",
"2. c #B72D4E",
"3. c #DC0E40",
"4. c #C71D49",
"5. c #DC1344",
"6. c #D91945",
"7. c #DC1C4D",
"8. c #DC1E52",
"9. c #E10D42",
"0. c #E11044",
"q. c #E1144C",
"w. c #E21B54",
"e. c #E21A55",
"r. c #CD2449",
"t. c #D5244C",
"y. c #DB244C",
"u. c #DA2848",
"i. c #CE2A55",
"p. c #DC2453",
"a. c #D72A56",
"s. c #DD2459",
"d. c #DC2C5C",
"f. c #CA315F",
"g. c #DA335D",
"h. c #E2225D",
"j. c #E02B5C",
"k. c #DD2E61",
"l. c #DE3365",
"z. c #D63861",
"x. c #DD3963",
"c. c #DF346C",
"v. c #DE3B6C",
"b. c #E22662",
"n. c #E22B66",
"m. c #E22E6A",
"M. c #E13464",
"N. c #E13966",
"B. c #E2346C",
"V. c #E13D6C",
"C. c #E33571",
"Z. c #E33B74",
"A. c #E43E7A",
"S. c #8C5156",
"D. c #955F64",
"F. c #84706D",
"G. c #8A7B76",
"H. c #817C7B",
"J. c #A96670",
"K. c #D5456D",
"L. c #DE4371",
"P. c #DF4977",
"I. c #E2426E",
"U. c #E24474",
"Y. c #E34975",
"T. c #E4437C",
"R. c #E34A7D",
"E. c #E5517F",
"W. c #8B837C",
"Q. c #96807C",
"!. c #E54C83",
"~. c #E64C86",
"^. c #E5528B",
"/. c #E65789",
"(. c #E85B95",
"). c #E9689A",
"_. c #928985",
"`. c #9D948E",
"'. c #9A9693",
"]. c #B98990",
"[. c #A59C97",
"{. c #A49E9B",
"}. c #A8A29C",
"|. c #AEA9A5",
" X c #AEAAA6",
".X c #BDA2A5",
"XX c #B1ADAB",
"oX c #BAB6B5",
"OX c #D0A5AB",
"+X c #C1BEBC",
"@X c #CDCBCA",
"#X c #D5D3D3",
"$X c #DAD7D7",
/* pixels */
"                                                                                                                                ",
"                                                                                                                                ",
"                                                                                                                                ",
"                                                                                                                                ",
"                                                                                                                                ",
"                                                                                                                                ",
"                                                                                                                                ",
"                                                                                                                                ",
"                                                                                                                                ",
"                                                                                                                                ",
"                                                                                                                                ",
"                                                                                                                                ",
"                                                                                                                                ",
"                                                    '.                                                                          ",
"                                                J z 0 x b L W.                                                                  ",
"                                              K 0 z V D B z 4 7 F W {.                                                          ",
"                                            W.z ; > 2.K.2.V 5 4 6 6 4 z L H.                                                    ",
"                                            J 4 * p t.R.z.| f - : 4 4 4 F Y W ! _.                                              ",
"                                          }.z - = } N.U.a.6.| ^ > - < : 4 n L Y R E W W.                                        ",
"                                          Q 6 = r 4.M.N.M.p.i.t.{ u = * + * ; 7 v H T R K |.                                    ",
"                                          J 5 = y r.U.M.p.7.M.a.p.-.' q X o @ @ ; 5 z H S I $X                                  ",
"                                          A < - f t.C.h.6.h.d.,.d.6.q.*.i o . X $ = < c E S |.                                  ",
"                                          v < > } s.V.h.a.M.y.M.a.t.@.5.5.[ w X . $ * k Q J W.                                  ",
"                                          z r p >.h.U.V.^.d.&.I.d.6.+.p.8.8.-.` & X $ k Q.K Q                                   ",
"                                        Q j s ` 5.B.!.T.Y.x.I.M.g.p.k.c.t.8.s.,.| e & m |.W E                                   ",
"                                        E j r [ b.B.T.p.g.N.Y.t.v.s.c.B.:.p.k.7.q.;.` S..XQ W                                   ",
"                                        Y h s 4.C.B.T.@.&.V.u.:.Z.l.l.t.:.M.k.C.j.q.>.].].Q F.                                  ",
"                                        Y a f C.A./.g.>.d.Y.@.d.g.d.A.l.d.I.Y.!.h.,.u.OXD.E G.                                  ",
"                                        R t <.A.T.^.Y.I.U.a.:.T.u.v.6.x.A.P.)./.h.=.,.J.C Y _.                                  ",
"                                        Y r 2.!.Z.Z.R.j./.:.v.Y.N.g.%.$.c.!.).x.q.$.{ M n I `.                                  ",
"                                        Y s f.(.T.w.;.M.).v.!.u.Y.x.T.n.M.I.!.s.0.#./ = v J {.                                  ",
"                                      [.C p i.^.Z.m.q.u.Y.g.E.L.I.L.g.V.y.d.Z.Z.e.O.u $ z A XX                                  ",
"                                      `.m > [ B.T.m.m.q.#.%.!.T.x.z.r.g.i.R./.x.q.X.q o j b +X                                  ",
"                                      _.g = i 6.m.n.q.n.c.p.:.%.P./.^.t.L.(.!.C.9.) & X 8 b @X                                  ",
"                                      G.t , q _ -.5.=.;.h.A.p.:.t.R.g.:.!./.T.b.$.( o + 4 G #X                                  ",
"                                      F.a k * e ( +.=.$.;.q.b.A.s.-.+.d.^.^.T.w.#.u X X 4 K                                     ",
"                                      F.M a X 1 d ( +.-.#.;.q.b.m.n.b.C.^.(.A.9._ q X $ 3 W                                     ",
"                                      F.a = 1 a B  .] ) @.o.$.w.e.b.n.~.(.^.C.=.) = . X 3 ~                                     ",
"                                      _.5 & a d  .S.S.d ^ *.@.$.3.9.e.b.Z.C.w.;.i = . $ ; _.                                    ",
"                                      G.n . = 1.1.l Z V a f | o.o.$.3.q.e.e.q.+.y % . % ; }.                                    ",
"                                        R 8 1 h k > = < 1 l N / _ o.o.5.B.e.-.( q o . % 3 oX                                    ",
"                                          Y P m a 1 = = = 1 B M f ) _ X.a.7.X.i < $ . ; 9 #X                                    ",
"                                            S I J c j 1 < , 1 - < r ^ ) _ { ) e < X . 2 G                                       ",
"                                                  v v v 8 g g < * * < u ( ) i > : . X 2 U                                       ",
"                                                        7 8 0 8 5 % # # = w > < * . % 2 W.                                      ",
"                                                              7 3 ; * $ @ @ * * $ 7 7 4                                         ",
"                                                                    ; $ $ $ $ X $ 0 4                                           ",
"                                                                      # X ; $ $ O %                                             ",
"                                                                            . O $                                               ",
"                                                                                                                                ",
"                                                                                                                                ",
"                                                                                                                                ",
"                                                                                                                                ",
"                                                                                                                                ",
"                                                                                                                                ",
"                                                                                                                                ",
"                                                                                                                                ",
"                                                                                                                                ",
"                                                                                                                                ",
"                                                                                                                                ",
"                                                                                                                                ",
"                                                                                                                                ",
"                                                                                                                                ",
"                                                                                                                                "
};
