/* XPM */
static char *_702b48c6e694307a1d0d52e2967ff4bcAyA3drh7i0ERlRq[] = {
/* columns rows colors chars-per-pixel */
"64 64 186 2 ",
"   c None",
".  c #020005",
"X  c #0B0101",
"o  c #04020B",
"O  c #09050D",
"+  c #0B090D",
"@  c #120402",
"#  c #13090A",
"$  c #1A0704",
"%  c #050611",
"&  c #090611",
"*  c #0D0B15",
"=  c #120D15",
"-  c #1B0F11",
";  c #120D18",
":  c #0D121A",
">  c #121217",
",  c #14131B",
"<  c #19151D",
"1  c #1A181B",
"2  c #1A110B",
"3  c #260C05",
"4  c #27140B",
"5  c #341706",
"6  c #281815",
"7  c #271B17",
"8  c #341B14",
"9  c #2D221D",
"0  c #38241B",
"q  c #161621",
"w  c #181722",
"e  c #1C1A23",
"r  c #1C1D28",
"t  c #221D25",
"y  c #231E28",
"u  c #1D2228",
"i  c #24232C",
"p  c #29262C",
"a  c #262226",
"s  c #372B27",
"d  c #3F312B",
"f  c #262532",
"g  c #262A33",
"h  c #2C2A34",
"j  c #322E3A",
"k  c #312E35",
"l  c #2A3037",
"z  c #35343C",
"x  c #39363A",
"c  c #39383E",
"v  c #333137",
"b  c #4A2C1A",
"n  c #502D1A",
"m  c #4B321E",
"M  c #45352A",
"N  c #4A3C2C",
"B  c #553827",
"V  c #483A35",
"C  c #473D38",
"Z  c #513630",
"A  c #4D453B",
"S  c #5D503F",
"D  c #574439",
"F  c #6B4C36",
"G  c #353441",
"H  c #3B3A43",
"J  c #3C3D49",
"K  c #413E44",
"L  c #413E4B",
"P  c #3E424C",
"I  c #43434C",
"U  c #494649",
"Y  c #564C45",
"T  c #464953",
"R  c #4B4B54",
"E  c #484753",
"W  c #524D55",
"Q  c #514E5A",
"!  c #4C5159",
"~  c #55545C",
"^  c #5B595F",
"/  c #585559",
"(  c #685649",
")  c #745A47",
"_  c #6B5B55",
"`  c #73645B",
"'  c #4F5D60",
"]  c #555562",
"[  c #5B5B65",
"{  c #615E66",
"}  c #5E6169",
"|  c #5F6072",
" . c #63636C",
".. c #67666A",
"X. c #7B7365",
"o. c #656571",
"O. c #6A6B75",
"+. c #676870",
"@. c #716F7B",
"#. c #726D74",
"$. c #6E717A",
"%. c #6F7074",
"&. c #737277",
"*. c #7A7777",
"=. c #77757C",
"-. c #786A65",
";. c #835F4A",
":. c #917056",
">. c #856857",
",. c #A37A57",
"<. c #867466",
"1. c #997A68",
"2. c #847672",
"3. c #AE845C",
"4. c #998678",
"5. c #96826E",
"6. c #A58978",
"7. c #B18E72",
"8. c #A88A6F",
"9. c #797A85",
"0. c #757781",
"q. c #827F89",
"w. c #7E8089",
"e. c #84838C",
"r. c #888588",
"t. c #8B8B94",
"y. c #858692",
"u. c #918E98",
"i. c #8F9199",
"p. c #939396",
"a. c #9B969A",
"s. c #95949B",
"d. c #978B84",
"f. c #AA9888",
"g. c #B89888",
"h. c #A3968F",
"j. c #B5A597",
"k. c #B8A69E",
"l. c #9A9AA4",
"z. c #A59FA3",
"x. c #9FA0A2",
"c. c #A4A3AB",
"v. c #ACA5A9",
"b. c #A9A8A9",
"n. c #B3ABAB",
"m. c #ABABB6",
"M. c #B3ADB6",
"N. c #AFB1BA",
"B. c #B7B4B8",
"V. c #BAB3A8",
"C. c #C4A18D",
"Z. c #C6AB98",
"A. c #D8B8A7",
"S. c #C5BCB8",
"D. c #C8B8AA",
"F. c #D2C5B6",
"G. c #E6C5B4",
"H. c #F6D3BF",
"J. c #B6B6C1",
"K. c #BDBCC3",
"L. c #C4BEC5",
"P. c #CAC6C9",
"I. c #D2CDCD",
"U. c #D7CCC4",
"Y. c #D6D1CD",
"T. c #C9CAD3",
"R. c #D2CDD1",
"E. c #D5D2D3",
"W. c #DAD5D4",
"Q. c #DDDAD6",
"!. c #DBD6DA",
"~. c #DAD9DA",
"^. c #E1DDDB",
"/. c #EED7C9",
"(. c #FDE1CB",
"). c #E4E2DE",
"_. c #EAE2D9",
"`. c #F7E5D5",
"'. c #DDDCE2",
"]. c #E1DEE2",
"[. c #E4E3E3",
"{. c #E8E6E8",
"}. c #EAEAEC",
"|. c #EDECF2",
" X c #F9F9F8",
".X c #F6EFEE",
/* pixels */
"                                                        D ( -.X.*.                                                              ",
"                                                    M M 2 4 7 d A U C                                                           ",
"                                                d V 9 4 @ X @ 3 9 @ X A                                                         ",
"                                                7 9 7 X @ M ) f.F.F.A s Y                                                       ",
"                                                # s <.` 1.Z./..X X X/.X.2.                                                      ",
"                                              a X S <.f.Z.A././.`.`..XF.4.X.                                                    ",
"                                              8 @ ( ) 8.g.g.Z.G.(.`.`./.S                                                       ",
"                                                X M ) f.A.A.G.(.H./.`.F.S                                                       ",
"                                                X s >.>.1.C.g.C.Z.D.(.F.Y                                                       ",
"                                                o Z >.Z n n B 8 m b F Z.`                                                       ",
"                                                X 4 3 $ 3 n g.3 3 0 F j.f.6.                                                    ",
"                                                @ @ 3 3 3 1.(.C.5.C.(.(.j.6.                                                    ",
"                                                6 6 0 ( ( 1./.G.G.H.A.G.Z.4.                                                    ",
"                                                * @ V 1.F 3 b ( 7.G.Z.Z.D.A.                                                    ",
"                                                $ X 0 ( Z 3 b g.C.7.Z.7.Z.k.                                                    ",
"                                                  X 6 0 3 5 B 1.:.,.1.:.5.                                                      ",
"                                                  6 2 6 3 3 b F b ;.8.>.4.                                                      ",
"                                                  p X 6 4 5 D :.:.B >.) f.                                                      ",
"                                                  O # - 3 Z g.k.7.B B F f.-.F.  T.                                              ",
"                                                - o # @ 2 M ) 6.1.n 5 <.f.Z c.[. X XK.m.                                        ",
"                                            o./ . . O X 2 6 8 8 5 5 F 6.j.M *.h.a.W.{.).N.z.                                    ",
"                                          y.} z . & O X @ - 3 3 5 F 6.6.D.d # *.t. .r.~ j c e.K.                                ",
"                                        y.[ ..u ; . & & # @ 4 8 s ( 1.j.j.N / ..a.x.*.+.O.N.K.B.}.~.                            ",
"                                    =.x.&.e.*.* p O O & # 2 - 6 b ) 1.V.Y A b.a.[.m.s.b.~.'.].R.I.{.                            ",
"                                t.T H E  .9.I , H , . * - X t 0 8 _ f.-.# q.I.r.[.T.m.T.z.P.'.J.c.c.K.                          ",
"                              9.[ r ~ R #.O.; p Q p . + - - 6 M s ` 2.@ V ].R...p.'.K.N.@.9.M.l.9.9.9.K.                        ",
"                            } f J J O.e.u. .< v  .I > . # # 6 ` _ V - t S..X]...R m.c.m.] z t.M.9. .R l.K.                      ",
"                          9.t / c.o.l.B.J.{ < ] &.^ h = O X o 6 2 - _ B.|.].].r.u } $.m.p.: I l.t.9.O.s.N.e.                    ",
"                        t.r.] j [ e.L.|.m.r.[ &.e.&.[ U 1 x K s Y n.!.{.].^.{.M.c O. .p.b.! q i.N.y.i.w.m.o.                    ",
"                      ~ { p.P o Q q.r.[ H r.p.@.i.e.t.O._ #.n.S.R.^.].].].].{.P.P T h &.~.x.w.P y.H T ] e.e.9.                  ",
"                      I  . .I < w , o o . W a.a.c.a.m.p.l.u.n.P.I.I.^.|.}.[.].{.$.u u 9. X X|.| ! 9.w ! $.9.e.y.                ",
"                    #.t ^ [ / < * o ; q O , M.l.M.c.K.K.M.L.P.R.Y.^.[.[.[.{._.].B.1 , *. X X XJ.f l.J r w.9.m.&.                ",
"                  p I w j W ] f ; & y h & o E p.v.S.L.E.P.P.E.W.^.].{.[.[.{.[.[.!.L K s. X X|.|.! t.N.} l.N.P O.9.              ",
"                v x = t q ! O.* ; % h L % * o o.J.L.L.Q.P.P.E.E.].].[.[.[._.).[.'.z.K [ !. X X{.=.! e.l.9.m.u P w.              ",
"                h < q < L 9.@.; O ; h G & & o y M.L.P.Q.^.E.E.Q.].].{.[.).).{.).].T.L f 9.z.K.s.o.! } i.s.m.P : t.              ",
"              q & , K z o.[ o.* & o ] J h w % . q.I.P.Q.~.Q.W.Q.].].[.^.).).[.[.].'.O.; z @.~ !.$.P 9.l.c.w.T w w.c.            ",
"              p h e o.] ! H f & o h l.L f G e o { W.P./.^.^.Q.).^.).).).)._.).[.].].u.w q ] J l.T.o.O.l.N.9.O.! } t.9.          ",
"            , e { E W H y r ; & & G | y g r e * / ^.I.!.W.^.Q.Q.^.^.).).).}.).[.].T.J.G E r y.T c.J.N.w.P g w.$.p } / +.        ",
"            o t [  .q o % * * o % H Q f H , h K =.W.R.W.^.Q.~.W.^.^.).^.).).[.[.].'.L.L o.f [ y.| 9.@.u u ! i.} > g W !         ",
"          * . + H H o * w % & o ; ] J j J p T ~ v.^.W.^.^.Q.^.^.^.^.^.^.)._.).{.].'.E.o.E o.o t.N.P P P P | w.P u > } O.        ",
"          , o . < H o O e * * o j t.] 9.@.O.t.t.L.^.^.W.^.^.!.^.Q.Q.Q.Q.!.^.^.].].{.W.q.c t.< H T.m.9.| | P P G 1 q , =.        ",
"          = o o * I o * o % ; % q G h q.O.i.c.T.R.].].^.]./.W.W.Q.E.E.W.W.^.^.^.^.^.^.n.c t.O.. l.J.' 9.9.G T % i e g =.        ",
"        , p + o . z u o * * p = ; * j ] T O.H B.W.W.!.!.!.W.R.R.E.E.E.E.W.!.^.^.^.^.W.L.] b.'.f J J.9.9.9.! ] : J : ] e.        ",
"        w p a , * , h . [ J * & ; f f G < I 9.B.R.U.L.U.W.W.W.R.P.P.I.P.R.I.R.I.I.Y.I.I.O.y.|.u.o 0.m.J.w.9.i.: : g < o.$.      ",
"        a H . a } h + * &.[ e * % f e q , H $.N.L.L.S.L.R.L.L.L.P.P.P.P.P.P.U.I.P.F.I.E.r. .J.J.: r l.T.[ 9.J.* u + g / t.=.    ",
"        . *.u . I c . + H z < O o % q : : w ^ M.v.S.M.S.S.S.L.K.B.B.B.B.M.n.M.n.B.M.n.B.p.U | 9.w : | w.| 9.i.P g % u } e.9.    ",
"        . / p.+ i , + o * c h + o & v < 1 H e.c.k.v.v.v.n.z.M.z.b.b.v.v.z.v.v.v.h.n.b.b.l.G h | g % P ' | w.9.G o % o P z =.    ",
"        v . $.+.. , . o . + i o & & q * , [ r.e.q.a.q.q.a.a.u.s.h.a.a.p.u.u.u.q.t.r.r.p.y.j f ] g % g P G ' ! q u P ! P z } $.  ",
"      i p O j &.& & . > . o + . o + + % . > [ { ..#.*.=.2.9.=.2.2.#.#.-.#.2.=.2.2.#.{ @.O.r H O.P % ' ' : u c c ! T ..s.b.n.&.  ",
"      w & = q Q f ; 1 k o = + . O * . o . 1 z c R W W W W W W / ] / { / / W E K L I x E L r o.m.O.: J ' u g l p T &.&.u.B.P.    ",
"      w * g 1 c o.* * h 1 e . . o , , o . e , , < t t t p k j z j x k h y p t t y t w w y , G | ! o l g z P g a +.*./ U X.*.^   ",
"      u x ! h  .q.x . a . = . o . p x O . p t + = = = - = - = ; ; # O ; - = ; ; ; # ; * % & % h I % l G u 1 p . : I x V d 7 Y   ",
"      , v < H =.2.H . p + . o o O h W + . k h O O O O & = = & # * # ; ; ; ; # # O ; O ; o % * y R o i R i i   * o # @ $ X @     ",
"      o . . : a.c.a X V < o o . O p K . o k k . O O O O O O o O * & O O O # O ; ; # & O o o w c / : G q.^ e     o X $ 8 B 8     ",
"      . g . o $.e.a o / I . # < o = i . . t y . . o o o O O & & O & & = ; = ; ; = o ; o . * H =.c.{ W z.t.      = @ m ;.:.)     ",
"    f ~ 9.o.[  .z e x x a .     . O = o . O * . O O X O # = = ; ; < ; ; < ; = = * ; * & o o ! *.z. .L 9./       # $ F ;.3.:.    ",
"  q c W  .t.c.M. .G H h i       . O = O . . = o o & * * = < w , < e < t , = = & * = o * o o I =.t.z w O./         3 F ,.3.,.8.  ",
", > + . . h | o.e.~ G           . > 1 . . o = o o & * ; ; w e e y w y t ; < ; t = = = o o o p ~ | u * T l         4 F ,.3.3.6.  ",
". . + + . O h K * H             . , e . O = y o & * & * < e f H R ] ] Q W Q L h , O , o o . > u U r o P g U       0 F ,.7.8.6.  ",
"7 . . . # X X O ; o             . * < o . * t * O & * * & * e z [ @.@.O.~ L j w * * * * . . : 1 R l o P u I       m b 8.7.8.5.  ",
"  o . X X @ # @ X +             . = > o o * O , * * : < r G ] [ E f w e y y ; y < g , o o . o v R h o T T T         n 1.7.f.4.  ",
"  , . + 4 D <.d.7               . , O . o * + * , , h L [ 0.o.I w f L Q ] ~ [ | o.U e * . . o ~ t.^ o T Q P         M X.f.<.X.  ",
"    . X Z 1.g.D.U               . 1 * . o * w : q u z ! ] [ E G { @.| 0.q.l.t.| c * % * . o . c +.[ . g h i         N A Y @ s   ",
"    s X D 5.7.j.              r . H p + > * i u g E [ O.| E E 9.O.O.q.i.u.q.] j g l h 1 + o . * v H . g c p         p X X X s   "
};
