/* XPM */
static char *_ff98031667f4006b6e1511c61f97806uXSwQcVaKMcSXJCG[] = {
/* columns rows colors chars-per-pixel */
"64 64 116 2 ",
"   c #030302",
".  c #12100F",
"X  c #1B1916",
"o  c #1F1C19",
"O  c #221F1B",
"+  c #26221D",
"@  c #28241F",
"#  c #292621",
"$  c #2E2A24",
"%  c #322D26",
"&  c #322E28",
"*  c #35312A",
"=  c #3A352D",
"-  c #3E382F",
";  c #3B3630",
":  c #3F3931",
">  c #433D34",
",  c #464036",
"<  c #494237",
"1  c #474138",
"2  c #4C453A",
"3  c #4F483D",
"4  c #514A3E",
"5  c #554D42",
"6  c #5A5245",
"7  c #5E5649",
"8  c #60574A",
"9  c #645B4D",
"0  c #685F4F",
"q  c #675E50",
"w  c #685F51",
"e  c #6D6353",
"r  c #716656",
"t  c #736957",
"y  c #716758",
"u  c #756B5A",
"i  c #796E5D",
"p  c #7C715E",
"a  c #7E7361",
"s  c #817663",
"d  c #857965",
"f  c #887C67",
"g  c #877B68",
"h  c #8A7E6A",
"j  c #8E816D",
"k  c #91846E",
"l  c #938671",
"z  c #968973",
"x  c #9A8C76",
"c  c #9D8F78",
"v  c #9F9079",
"b  c #A3947C",
"n  c #A7987E",
"m  c #A8997F",
"M  c #A79880",
"N  c #AB9C83",
"B  c #AFA086",
"V  c #B1A186",
"C  c #B5A589",
"Z  c #B5A58A",
"A  c #B6A68A",
"S  c #B8A78B",
"D  c #B8A78C",
"F  c #B8A88C",
"G  c #BAA98C",
"H  c #BAA98D",
"J  c #BAAA8D",
"K  c #BBAA8D",
"L  c #BBAA8E",
"P  c #BCAB8E",
"I  c #BDAC8F",
"U  c #BDAC90",
"Y  c #BEAD91",
"T  c #BFAE91",
"R  c #C0AE91",
"E  c #C0AF91",
"W  c #C1AF92",
"Q  c #C1B092",
"!  c #C2B193",
"~  c #C3B193",
"^  c #C3B194",
"/  c #C4B294",
"(  c #C4B295",
")  c #C5B395",
"_  c #C5B496",
"`  c #C6B496",
"'  c #C8B597",
"]  c #C8B697",
"[  c #C7B598",
"{  c #C9B798",
"}  c #CAB799",
"|  c #CBB899",
" . c #CAB89A",
".. c #CBB99A",
"X. c #CCB99A",
"o. c #CCB99B",
"O. c #CDBA9B",
"+. c #CDBB9C",
"@. c #CEBB9C",
"#. c #CFBC9C",
"$. c #CEBC9D",
"%. c #D0BD9D",
"&. c #D1BE9E",
"*. c #D1BE9F",
"=. c #D2BF9F",
"-. c #D3BF9F",
";. c #D3C09F",
":. c #D3C0A0",
">. c #D4C0A0",
",. c #D4C1A1",
"<. c #D5C2A1",
"1. c #D5C2A2",
"2. c #D7C3A2",
"3. c #D7C4A3",
"4. c #D8C5A4",
"5. c #DBC7A6",
/* pixels */
"=.=.=.=.=.=.=.=.=.=.=.=.=.=.=.=.=.=.=.=.=.=.=.=.=.=.=.=.=.%.;.;.;.=.=.=.=.=.=.=.;.=.;.;.=.=.=.=.=.=.=.=.;.=.=.=.=.=.=.=.=.=.=.=.",
"=.=.=.=.=.=.=.=.=.=.=.=.=.=.=.=.=.=.=.=.=.=.=.;.=.=.=.=.=.=.;.%.=.=.=.-.=.=.=.=.=.;.#.;.=.=.=.=.=.=.=.=.;.;.=.=.=.=.=.=.=.=.=.=.",
"=.=.=.=.;.;.;.;.=.=.=.=.=.;.=.=.;.;.;.;.=.=.;.;.=.;.=.=.;.;.;.;.=.=.=.;.=.=.=.=.;.;.;.;.=.=.=.=.=.;.=.=.#.:.;.;.=.=.=.=.=.=.=.=.",
"=.=.=.=.=.' ~ X.=.;.=.;.<.:.;.;.;.;.;.=.=.=.~ ' ;.;.;.;.;.;.;.;.;.;.;.;.;.;.=.=.~ ..;.;.;.=.;.;.=.;.;.=.;.#.~ X.;.;.;.=.=.=.=.=.",
"=.=.=.=.' 6 < 8 ..T #.~ C ` E C P P C ..;.x < 6 V C S S S X.E C E S C C C S =.x < 4 ` S ~ ;.) ' ..C I ;.' t > t X.C ) =.=.=.=.=.",
"=.=.=.<.V 7 b 4 V 4 ~ e 2 8 7 5 p 4 2 d X.4 l z 8 = 0 4 2 p 4 9 i 4 8 0 = r ~ 6 k v j 2 7 ' 0 b z 2 4 P k r G z d 2 9 ;.=.=.=.=.",
"=.=.=.<.z % 2 f f < V 4 0 6 < j n < 8 k =.4 @ f b s l 4 8 0 3 m s 4 V G e X.%.6 @ r e G 0 c , l u 6 6 I 0 C 2.I e G 9 ' =.=.=.=.",
"=.=.=.<.p f I G 3 > j 6 k k 6 b k 4 4 @.P m u u j x s 2 9 s 0 m e p I m p 2.S m p < e V 0 0 : i 0 s m =.4 m V j t N e T =.=.=.=.",
"=.=.=.=.t C <.k z i e k 5.k < 0 u b e } x > 5 V s V i n y q 2 u 6 4 k z x 3.b > 4 c 4 6 d d z e i =.<.;.p - 9 b 4 6 z d ;.=.=.=.",
"=.=.=.=.) =.;.` #.' ~ ..;.' G P ) @.E %.%.G ~ =.) @.) @.( W J Y I S ~ ' ..=.@.G ~ ;.~ I ..} X.^ ` =.=.=.#.C ' ;.I T #.' =.=.=.=.",
"=.=.=.=.:.=.=.;.;.;.;.;.=.;.;.;.,.=.=.=.=.=.*.=.<.*.,.*.*.,.*.,.;.;.;.;.=.=.=.:.;.=.;.;.=.;.=.:.;.=.=.=.;.;.;.=.;.;.=.;.=.=.=.=.",
"=.=.=.=.=.=.=.=.;.=.;.=.=.;.;.;.=.=.=.=.=.=.=.=.*.*.*.*.*.*.,.*.;.;.;.;.=.=.=.=.=.=.=.=.=.=.=.=.=.=.=.=.=.=.=.=.;.=.=.=.=.=.=.=.",
"=.=.=.=.=.=.=.=.=.=.=.=.=.=.=.=.=.=.=.=.=.=.=.=.*.=.=.=.*.,.*.*.;.=.=.=.=.=.=.=.=.=.=.=.=.=.=.=.=.=.=.=.=.=.=.=.=.=.=.=.=.=.=.=.",
"=.=.=.=.=.=.=.=.=.=.=.=.=.=.=.=.=.=.=.=.=.=.=.=.,.=.=.=.*.,.*.,.=.=.=.=.=.=.=.=.=.=.=.=.=.=.=.=.=.=.=.=.=.=.=.=.=.=.=.=.=.=.=.=.",
"=.=.=.=.=.=.=.=.=.=.=.=.=.=.=.=.=.=.=.=.=.=.=.=.=.=.=.=.,.*.,.*.;.=.=.;.=.;.=.=.=.=.=.=.=.=.=.=.=.=.=.=.=.=.=.=.=.=.=.=.=.=.=.=.",
"=.=.=.=.=.=.=.=.=.=.=.=.=.=.=.=.=.=.=.=.=.=.=.=.=.=.=.<.,.*.$. .` X.%.;.<.;.=.=.=.=.=.=.=.=.=.=.=.=.=.=.=.=.=.=.=.=.=.=.=.=.=.=.",
"=.=.=.=.=.:.:.:.=.=.=.=.=.=.;.=.=.=.=.=.=.=.=.=.*.1.[ M a y 9 5 5 6 6 e h C #.:.*.:.:.:.#.:.*.:.=.=.;.;.=.=.=.;.=.=.=.=.=.=.=.=.",
"=.=.=.=.X.E ) ' ) =.=.;.;.=.` =.=.=.=.=.=.=.<.;.Z a 6 w g M N g e G b z y 6 q x ..:.:.:.:.*.:.*.=.=.) ) =.;.=.' ;.;.=.} =.=.=.=.",
"=.=.=.=.b k N x b S n G G G N ;.=.=.=.=.<.<.) i 7 h Y @.1.,.,.M u :.:.3.1.#.N y 9 b :.:.:.:.*.:.=.=.c k C G G b G E G n ..=.=.=.",
"=.=.=.~ d f V b j h d p h d N ;.=.=.=.=.<.M 8 h Y [ *. .,.( x M b V _ :.:.:.#.[ N e a  .:.#.:.*.=.#.z h d i d i u d s s P =.=.=.",
"=.=.:.G b m G C C v n b V b T =.=.=.:.*.z 9 V ) M M M  .*.( M M j x U :.@. .M b N ..h e Y 1.:.:.=...m n b b v m n c c n X.=.=.=.",
"=.;.;.=.;.;.;.:.<.=.=.=.=.<.=.=.=.:.*.z w n ^ M  .$.M M N  .$.Z v #.$.B B T N 1.T C ` j q Y :.*.=.=.;.;.;.=.;.;.;.;.;.;.;.=.=.=.",
"=.=.=.=.=.=.;.;.=.=.=.=.=.=.=.=.=.:.n q C z b ^  .N h M T N $.Z M 1.N F z N x [ :.Z N M x y #.*.=.=.=.=.=.=.=.=.=.=.=.=.=.=.=.=.",
"=.=.=.=.=.=.=.;.=.=.=.=.=.=.=.=.<.E w C *.b D =.Y M T Z M M M M M Y j M N *.Z T 1.#.M U 1.j h 1.=.=.=.=.=.=.=.=.=.=.=.=.=.=.=.=.",
"=.=.=.=.=.=.=.=.=.=.=.=.=.=.=.=.*.d x <.*.1. .N M M M N Y M 7 y i a z [ x Z z x M [ *.*.*.#.u Z ;.=.=.=.=.=.=.=.=.=.=.=.=.=.=.=.",
"=.=.=.=.=.=.=.=.=.=.=.=.=.=.=.<.C s @.=.:.^ M u : 7 h Z [ w a g u 5 u *.M g a 5 7 a N *.*.*.N a =.=.=.=.=.=.=.=.=.=.=.=.=.=.=.=.",
"=.=.=.=.=.=.=.=.=.=.=.=.=.=.=.:.g N <.=.T x z 5 X 5 i Z h a l h z g h Z u u q ; : 5 i N 1.*.1.a C ;.=.=.=.=.=.=.=.=.=.=.=.=.=.=.",
"=.=.=.=.=.=.=.=.=.=.=.=.=.=.:.` u N ^ <.F g y 5 u q 5 g w a Z g j M j 5 ; y h z 7 q q k $.*.Y h j <.=.=.=.=.=.=.=.=.=.=.=.=.=.=.",
"=.=.=.=.=.=.=.=.=.=.=.=.=.=.:.M y l N @.:.*.G u y o > u 1 h Z M h M M 5 . 5 y 7 y M ` @.=.[ M g y #.=.=.=.=.=.=.=.=.=.=.=.=.=.=.",
"=.=.=.=.=.=.=.=.=.=.=.=.=.=.<.k g a N @.*.<.C u *   * 5 5 Z M M M M B 9 # 7 6 5 : j @.:.<.^ b g u I :.=.=.=.=.=.=.=.=.=.=.=.=.=.",
"=.=.=.=.=.=.=.=.=.=.=.=.=.=.=.d N l c V C [ z 6 #   5 M B h B M M B a M g 7 * ; 5 w T #.N V c b j M <.=.=.=.=.=.=.=.=.=.=.=.=.=.",
"=.=.=.=.=.=.=.=.=.=.=.=.=.=.@.d [ T N T C x s 8 & # l *.l g M h M B h z ^ q $ 1 7 5 z V G C C ..b b <.=.=.=.=.=.=.=.=.=.=.=.=.=.",
"=.=.=.=.=.=.=.=.=.=.=.=.=.=.X.s [ :.:.1.$.M M M M M  .1.M M C M M M M y [ [ g a x l M Z 1.*.1.:.M v 1.*.=.=.=.=.=.=.=.=.=.=.=.=.",
"=.=.=.=.=.=.=.=.=.=.=.=.=.=.X.d  .1.*.$.Z M M M N 1.*.*.T C B y y M M M @.#.1.( M M V N Y *.:.1.M c 1.*.=.=.=.=.=.=.=.=.=.=.=.=.",
"=.=.=.=.=.=.=.=.=.=.=.=.=.=.=.d [ :.*.*.N U g M W *. .N @.*.M $ ; y T T B _ :.$.h l N [ Y *.<.1.x M 1.:.=.=.=.=.=.=.=.=.=.=.=.=.",
"=.=.=.=.=.=.=.=.=.=.=.=.=.=.=.f Z :.1.1.N ( U M $.*.*.a M *.y 5 5 5  .U M 1.$.1.u c [ x *.1.*.:.h N <.*.=.=.=.=.=.=.=.=.=.=.=.=.",
"=.=.=.=.=.=.=.=.=.=.=.=.=.=.<.z N 1. .l h *. .M B ( *.y 6 y > ; # + y 5 w Y 4.[ 7 h :.M M Z 1.@.s ^ =.=.=.=.=.=.=.=.=.=.=.=.=.=.",
"=.=.=.=.=.=.=.=.=.=.=.=.=.=.;.C s 1.^ z l Z Z Y M y w * a a q 5 5 1 & # : w M l l g @.g k l *.Y a *.:.*.=.=.=.=.=.=.=.=.=.=.=.=.",
"=.=.=.=.=.=.=.=.=.=.=.=.=.=.=.X.u ( Z z M Z Z ( [ Z ; 5 h B M M M h q q q 5 u M U l Z N z l [ z x <.*.:.=.=.=.=.=.=.=.=.=.=.=.=.",
"=.=.=.=.=.=.=.=.=.=.=.=.=.=.=.;.z h h u N W Z  . .M w z y M M B Z g 5 y M 9 z M T l N U a u s u ^ *.:.*.=.=.=.=.=.=.=.=.=.=.=.=.",
"=.=.=.=.=.=.=.=.=.=.=.=.=.=.=.=.( e N Z  .T N  .*.M a M z a l M l $ $ h M 1 6 M Y h B [ N N h h :.=.=.=.=.=.;.;.=.=.*.:.=.=.=.=.",
"=.=.=.=.=.=.=.=.=.=.=.=.=.=.=.=.1.l g 1.*.N N U *.M C l M M i y # O h M M M 5 Z Y h l Z 1.Y w ( ;.=.=.=.=.=.=.;.=.=.:.*.=.=.=.=.",
"=.=.=.=.=.=.=.=.=.=.=.=.=.=.=.=.1. .y c  .i M N *.8 M h N  .B 6 $ M $.M D V y [ Y l M M @.y M 1.=.=.;.=.#.;.;.;.<.<.<.*.=.=.=.=.",
"=.=.=.=.=.;.N j k d d s b =.=.=.:.1.Y 9 M x N z T 8 a u T T T M q [  .T h N s *.M a l M a g @.1.=.=.;.z p C G ~ N N T *.=.=.=.=.",
"=.=.=.=.=.=.c k y 7 t u h @.=.:.:.*.<.C 5 u z M ` 9 g h M 8 u 5 X 5 1 i l N M  .M a h 7 a *.*.*.=.=.:.N k i f b u 0 a =.=.=.=.=.",
"=.=.=.;.=.<.n 8 i e s t l =.=.*.*.:.*.<.Z 9 y h y 6 u y k 5 p 2 * : & y h h i z i g 6 g *.*.*.*.=.=.:.G M b j s i s z =.=.=.=.=.",
"=.=.;.;.;.;.' ~ ` ) } ) } <.<.*.:.=.:.*.:.[ a O 6 z Z z V M l w 5 g u Z N [ M a O 5 M *.*.1.*.*.;.;.<.:.#.@.` ~ ~ } @.=.=.=.=.=.",
"=.=.;.C z z b l G n C C N z v V <.=.*.*.*.:.*.M 7 5 k h T C b e 1 M M *.M N 5 : i Y @. .*.*.*.1.;...x n ..' ^ ` ` ~ ) @.=.=.=.=.",
"=.=.<.c e t i 0 j p h f h t k f ;.=.=.=.=.=.=.<.X.M u 2 6 7 e < ; i 9 w 5 8 h G <.;.=.=.=.=.=.=.=.` h p k s 9 i i t i d ` ;.;.;.",
"=.=.;.B t p t p p t k x b r s f =.=.=.=.=.=.=.=.;.<.<.) M j a y w e d v G @.<.:.=.=.=.=.=.=.=.=.=.[ a i i t 9 a r e d e ~ ;.=.;.",
"=.=.;.~ V C C V ' G ~ ) E C V E ;.=.=.=.=.=.=.=.=.=.=.:.<.<.<.<.<.<.<.<.*.:.=.=.=.=.=.=.=.=.=.=.=.=.B G C G T V S V G ~ ..=.=.=.",
"=.=.;.;.<.;.<.<.;.;.;.:.=.;.;.;.=.=.=.=.=.=.=.=.=.=.=.=.=.=.=.=.=.=.=.=.=.=.=.=.=.=.=.=.=.=.=.=.=.=.:.;.:.;.;.:.;.;.;.;.:.=.=.=.",
"=.=.=.=.=.=.=.=.=.=.=.=.=.=.=.=.=.=.=.=.=.=.=.=.=.=.=.=.=.=.=.=.=.=.=.=.=.=.=.=.=.=.=.=.=.=.=.=.=.=.=.=.=.=.=.=.=.=.=.=.;.=.=.=.",
"=.=.=.=.=.=.=.=.=.=.=.=.=.=.=.=.=.=.=.=.=.=.=.=.=.=.=.=.=.=.=.=.=.=.=.=.=.=.=.=.=.=.=.=.=.=.=.=.=.=.=.=.=.=.=.=.=.=.=.=.=.=.=.=.",
"=.=.=.=.=.=.=.=.=.=.=.=.=.=.=.=.=.=.=.=.=.=.;.=.=.=.=.=.=.=.=.=.=.=.=.=.=.=.=.=.=.=.=.=.=.=.=.=.=.=.=.=.=.=.=.=.=.=.=.=.=.=.=.=.",
"=.=.=.=.=.=.=.=.=.=.=.=.=.=.=.=.=.=.=.=.=.=.;.;.=.=.=.=.=.=.=.=.=.=.=.=.=.=.=.=.=.=.=.=.=.=.=.;.=.=.=.=.=.=.=.=.=.=.=.=.=.=.=.=.",
"=.=.=.=.=.=.=.=.;.;.;.;.;.;.;.<.-.-.<.<.=.*.<.=.<.<.;.;.<.<.*.*.=.<.;.;.;.;.;.;.=.;.;.=.;.=.;.;.;.;.;.;.:.:.;.=.=.=.=.=.=.=.=.=.",
"=.=.=.=.=.=.<.m k c x f V k n ' ) E I G ~ E k V G G E G G C ~ <.M j S ~ } ` T E T ~ ~ E I X.;.I V x n z b b x V :.=.=.=.=.=.=.=.",
"=.=.=.=.=.=.<.z t k d k n e i s s 8 e i e n 9 p u 8 0 s u s c G h 7 8 i s j i 0 p p 9 e i b G N j e 7 4 r u 5 b <.=.=.=.=.=.=.=.",
"=.=.=.=.=.=.=.m t s d k E j N e u x r s p V e k k r r a i c C C j 9 e p t t i p x i r u u b C S x p e e e t e z ;.=.=.=.=.=.=.=.",
"=.=.=.=.=.=.-.) G G E ` @.' X.) E =.C P ) ' S ` } ~ G S C ~ X.<.E C ) E ) G G } X.S ) E C X.;.X.' G ~ G T ~ G } ;.=.=.=.=.=.=.=.",
"=.=.=.=.=.=.=.<.;.;.=.;.=.;.;.;.*.=.<.=.<.=.<.<.=.;.;.;.<.-.=.=.<.<.=.=.;.;.<.=.=.<.<.=.;.;.;.=.;.;.;.;.:.:.:.:.=.=.=.=.=.=.=.=.",
"=.=.=.=.=.=.=.=.=.=.=.=.=.=.;.;.=.=.=.=.=.=.=.=.=.=.=.=.=.=.=.=.=.=.=.=.=.=.=.=.=.=.=.=.;.;.=.=.=.=.;.;.=.=.=.=.=.=.=.=.=.=.=.=.",
"=.=.=.=.=.=.=.=.=.=.=.=.=.=.=.=.=.=.=.=.=.=.=.=.=.=.=.=.=.=.=.=.=.=.=.=.=.=.=.=.=.=.=.=.=.=.=.=.=.=.=.=.=.=.=.=.=.=.=.=.=.=.=.=."
};
