/* XPM */
static char *result[] = {
/* columns rows colors chars-per-pixel */
"64 64 189 2 ",
"   c #050405",
".  c #0D0C0D",
"X  c #130D0D",
"o  c #190E0B",
"O  c #110805",
"+  c #12100F",
"@  c #1A120D",
"#  c #100F12",
"$  c #151314",
"%  c #1A1515",
"&  c #1D1817",
"*  c #171618",
"=  c #191719",
"-  c #1C1A1C",
";  c #280C09",
":  c #29110E",
">  c #27100F",
",  c #3B100A",
"<  c #2B1613",
"1  c #251916",
"2  c #2F1B16",
"3  c #221C1C",
"4  c #2B1D1B",
"5  c #251614",
"6  c #331614",
"7  c #351817",
"8  c #3A1817",
"9  c #341E1A",
"0  c #3B1B1A",
"q  c #391716",
"w  c #2B211E",
"e  c #26201F",
"r  c #36201D",
"t  c #3B211D",
"y  c #1F1D20",
"u  c #201E21",
"i  c #252222",
"p  c #2A2423",
"a  c #2B2A29",
"s  c #342723",
"d  c #3B2925",
"f  c #332D2C",
"g  c #3B2320",
"h  c #38302D",
"j  c #363331",
"k  c #3C3937",
"l  c #491717",
"z  c #441B1A",
"x  c #4B1C1B",
"c  c #401614",
"v  c #531B1B",
"b  c #5A1D1D",
"n  c #671E1F",
"m  c #44221F",
"M  c #4D211E",
"N  c #55221F",
"B  c #5B211F",
"V  c #452923",
"C  c #4B2823",
"Z  c #552421",
"A  c #5C2522",
"S  c #542A26",
"D  c #5A2B26",
"F  c #572B29",
"G  c #4D3026",
"H  c #46322D",
"J  c #4D342C",
"K  c #48382E",
"L  c #53332C",
"P  c #58352D",
"I  c #4B3835",
"U  c #433D39",
"Y  c #453B35",
"T  c #5A3934",
"R  c #533B32",
"E  c #642422",
"W  c #6A2422",
"Q  c #632B25",
"!  c #6B2B26",
"~  c #6F2F29",
"^  c #752927",
"/  c #742D28",
"(  c #623529",
")  c #643B2D",
"_  c #633525",
"`  c #74342B",
"'  c #7B352B",
"]  c #673E35",
"[  c #7D3530",
"{  c #41403F",
"}  c #4C423C",
"|  c #5D433C",
" . c #55453C",
".. c #694436",
"X. c #6F4A37",
"o. c #64443C",
"O. c #754A35",
"+. c #744A3B",
"@. c #724438",
"#. c #5B4A44",
"$. c #554B48",
"%. c #5D534D",
"&. c #624C44",
"*. c #6F4842",
"=. c #754F4A",
"-. c #62534B",
";. c #695449",
":. c #765646",
">. c #7B5A4A",
",. c #785448",
"<. c #655B53",
"1. c #675C58",
"2. c #775B56",
"3. c #6F6055",
"4. c #6D625A",
"5. c #70645B",
"6. c #79675E",
"7. c #736A66",
"8. c #796C64",
"9. c #7D726B",
"0. c #76716F",
"q. c #7B7675",
"w. c #82372D",
"e. c #863D33",
"r. c #8A3C35",
"t. c #864535",
"y. c #84453E",
"u. c #934A3D",
"i. c #83553A",
"p. c #94523C",
"a. c #854C44",
"s. c #924B41",
"d. c #885746",
"f. c #88584A",
"g. c #965347",
"h. c #945C4A",
"j. c #955A48",
"k. c #965B52",
"l. c #9C5C54",
"z. c #96634A",
"x. c #9E624F",
"c. c #9D6042",
"v. c #826456",
"b. c #886558",
"n. c #9B6252",
"m. c #9B6C58",
"M. c #9E7357",
"N. c #A0674D",
"B. c #A16655",
"V. c #A66B54",
"C. c #A87758",
"Z. c #886B65",
"A. c #84746C",
"S. c #9D7566",
"D. c #9A756A",
"F. c #847B74",
"G. c #897D75",
"H. c #847D7B",
"J. c #937B76",
"K. c #A67363",
"L. c #BA855C",
"P. c #8C8177",
"I. c #8B827B",
"U. c #97867C",
"Y. c #AB826D",
"T. c #B78A6E",
"R. c #AB867A",
"E. c #878381",
"W. c #968B85",
"Q. c #9E938B",
"!. c #9D9592",
"~. c #A2968D",
"^. c #AA9B99",
"/. c #A58984",
"(. c #ADA39B",
"). c #B3A69D",
"_. c #ACA8A5",
"`. c #B4ABA3",
"'. c #BAB0A7",
"]. c #BCB3AC",
"[. c #C69882",
"{. c #C2B4AB",
"}. c #C7BAB6",
"|. c #CBC1BA",
" X c #DACBBD",
".X c #CECCCB",
"XX c #D3CBC5",
"oX c #DCD6CE",
"OX c None",
/* pixels */
"OXOXOXOXOXOXOXOXOXOXOXOXOXOXOXOXOXOXOXOXOXOXOXOXOXOXOXOXOXOXOXOX{ { OXOXOXOXOXOXOXOXOXOXOXOXOXOXOXOXOXOXOXOXOXOXOXOXOXOXOXOXOXOX",
"OXOXOXOXOXOXOXOXOXOXOXOXOXOXOXOXOXOXOXOXOXOXOXOXOXOXOXOXOXOX4 i 4 w J d OXOXOXOXOXOXOXOXOXOXOXOXOXOXOXOXOXOXOXOXOXOXOXOXOXOXOXOX",
"OXOXOXOXOXOXOXOXOXOXOXOXOXOXOXOXOXOXOXOXOXOXOXOXOXOXOXOXOX% % 3 - 3 w w OXOXOXOXOXOXOXOXOXOXOXOXOXOXOXOXOXOXOXOXOXOXOXOXOXOXOXOX",
"OXOXOXOXOXOXOXOXOXOXOXOXOXOXOXOXOXOXOXOXOXOXOXOXOXOXOXOXOX& 6 G J +.+.} G OXOXOXOXOXOXOXOXOXOXOXOXOXOXOXOXOXOXOXOXOXOXOXOXOXOXOX",
"OXOXOXOXOXOXOXOXOXOXOXOXOXOXOXOXOXOXOXOXOXOXOXOXOXOXOXOXOX1 P z.L.T.L.O.T OXOXOXOXOXOXOXOXOXOXOXOXOXOXOXOXOXOXOXOXOXOXOXOXOXOXOX",
"OXOXOXOXOXOXOXOXOXOXOXOXOXOXOXOXOXOXOXOXOXOXOXOXOXOXOXOXOX4 H | :.:.>.O.] OXOXOXOXOXOXOXOXOXOXOXOXOXOXOXOXOXOXOXOXOXOXOXOXOXOXOX",
"OXOXOXOXOXOXOXOXOXOXOXOXOXOXOXOXOXOXOXOXOXOXOXOXOXOXOXOXOXr 9 9 O.J x +.OXOXOXOXOXOXOXOXOXOXOXOXOXOXOXOXOXOXOXOXOXOXOXOXOXOXOXOX",
"OXOXOXOXOXOXOXOXOXOXOXOXOXOXOXOXOXOXOXOXOXOXOXOXOXOXOXOXOXOXV C J ..( d.OXOXOXOXOXOXOXOXOXOXOXOXOXOXOXOXOXOXOXOXOXOXOXOXOXOXOXOX",
"OXOXOXOXOXOXOXOXOXOXOXOXOXOXOXOXOXOXOXOXOXOXOXOXOXOXOXOXOXOXt m L ..O.b.OXOXOXOXOXOXOXOXOXOXOXOXOXOXOXOXOXOXOXOXOXOXOXOXOXOXOXOX",
"OXOXOXOXOXOXOXOXOXOXOXOXOXOXOXOXOXOXOXOXOXOXOXOXOXOXOXOXOX#.w r m G L m.OXOXOXOXOXOXOXOXOXOXOXOXOXOXOXOXOXOXOXOXOXOXOXOXOXOXOXOX",
"OXOXOXOXOXOXOXOXOXOXOXOXOXOXOXOXOXOXOXOXOXOXOXOXOXOXOXOXOX5.d r 9 C ..v.OXOXOXOXOXOXOXOXOXOXOXOXOXOXOXOXOXOXOXOXOXOXOXOXOXOXOXOX",
"OXOXOXOXOXOXOXOXOXOXOXOXOXOXOXOXOXOXOXOXOXOXOXy.k.t.d./.9.P.3.m C ) i.{.!.~.R.h.l.OXOXOXOXOXOXOXOXOXOXOXOXOXOXOXOXOXOXOXOXOXOXOX",
"OXOXOXOXOXOXOXOXOXOXOXOXOXOXOXOXOXOXOXOXOXOXZ [ ` C 8 F ` #.$.d.O.u.v.I.;.~ S m / u.u.OXOXOXOXOXOXOXOXOXOXOXOXOXOXOXOXOXOXOXOXOX",
"OXOXOXOXOXOXOXOXOXOXOXOXOXOXOXOXOXOXOXOXOXOXv W b l x C e.o.} &.C.Y.P.`.Z.` Q N W r.r.V.OXOXOXOXOXOXOXOXOXOXOXOXOXOXOXOXOXOXOXOX",
"OXOXOXOXOXOXOXOXOXOXOXOXOXOXOXOXOXOXOXOXOXS M v n n E z F ..8.F.R.|.XXoXZ.^ / ^ ^ ^ ^ p.OXOXOXOXOXOXOXOXOXOXOXOXOXOXOXOXOXOXOXOX",
"OXOXOXOXOXOXOXOXOXOXOXOXOXOXOXOXOXOXOXx z x M x n Q v Z v v.~.|. X.X`.|.6.W n ^ W n ^ / g.OXOXOXOXOXOXOXOXOXOXOXOXOXOXOXOXOXOXOX",
"OXOXOXOXOXOXOXOXOXOXOXOXOXOXOXOXOXOXx v v b z 0 b N l x N D.}.].).~.<.~.=.b b E b v x E ` u.OXOXOXOXOXOXOXOXOXOXOXOXOXOXOXOXOXOX",
"OXOXOXOXOXOXOXOXOXOXOXOXOXOXOXOXOXOXx b b l 7 < x x 0 z z Z.G.G.5.#.#.~.] v b A b l 0 v W ^ j.OXOXOXOXOXOXOXOXOXOXOXOXOXOXOXOXOX",
"OXOXOXOXOXOXOXOXOXOXOXOXOXOXOXOXA F z C Z z 9 r m x x x C 1.#.%.1.8.H.^.T v x N v 7 < 8 b W ! n.OXOXOXOXOXOXOXOXOXOXOXOXOXOXOXOX",
"OXOXOXOXOXOXOXOXOXOXOXOXOX' e.[ N x m t 0 1 OXOX6 x x v S Z.<.9.W.6.~._.T N A Z F OX2 8 C Z Q ! w.l.l.OXOXOXOXOXOXOXOXOXOXOXOXOX",
"OXOXOXOXa.c.t.w.' r.s.e.^ t.w.! F x 7 3 < OXOXOX: z l x F  .U 8.{.(.}.(.| Z n x C OXOXOX6 x A E W ^ e.a.g.l.g.OXOXOXOXOXOXOXOXOX",
"OXOXOXOXn._ ` t.' / r.E A Q A x 0 < OXOXOXOXOXOX5 z z l T -.A.!.].].}.).| v b z T OXOXOXOXOX; 0 v v B ! ^ w.r.g.n.n.B.K.K.OXOXOX",
"OXx.N.j.x.d...( W v l 8 < c , OXOXOXOXOXOXOXOXOX< 0 x l o.G.G.A.8.Q.).`.#.v b z I OXOXOXOXOXOXOX; : q l x v W W u.N.C.L.[.S.m.S.",
"OXB.h.O.) z.z.M OXOXOXOXOXOXOXOXOXOXOXOXOXOXOXOX2 z x x L I.).W.<.Q.U.~.2.x Z v M OXOXOXOXOXOXOXOXOXOXOXOX: q z v ' C.M.,...OXOX",
"OXOXOXOXOXOXOXOXOXOXOXOXOXOXOXOXOXOXOXOXOXOXOXOX0 x v v L <.W.).1.'.'.P.;.M M M D =.OXOXOXOXOXOXOXOXOXOXOXOXOXOXOXOXOXOXOXOXOXOX",
"OXOXOXOXOXOXOXOXOXOXOXOXOXOXOXOXOXOXOXOXOXOXOXm l M z z L  .<.'.U.'.|.(.%.M N Z P *.OXOXOXOXOXOXOXOXOXOXOXOXOXOXOXOXOXOXOXOXOXOX",
"OXOXOXOXOXOXOXOXOXOXOXOXOXOXOXOXOXOXOXOXOXOXOX9 7 z z x 6.~.q.(._.].].].8.m b E Q k.OXOXOXOXOXOXOXOXOXOXOXOXOXOXOXOXOXOXOXOXOXOX",
"OXOXOXOXOXOXOXOXOXOXOXOXOXOXOXOXOXOXOXOXOXOXOXg < z x Z A.`.(.I.W.'.`.(.3.m B ' b a.OXOXOXOXOXOXOXOXOXOXOXOXOXOXOXOXOXOXOXOXOXOX",
"OXOXOXOXOXOXOXOXOXOXOXOXOXOXOXOXOXOXOXOXOXOXOXr 6 x l F J.H.1.U 3.I.F.0.} t N t./ OXOXOXOXOXOXOXOXOXOXOXOXOXOXOXOXOXOXOXOXOXOXOX",
"OXOXOXOXOXOXOXOXOXOXOXOXOXOXOXOXOXOXOXOXOXOXOXr 6 z z ] W.7.8.f $.<.I.4.} 6 Z t.y.OXOXOXOXOXOXOXOXOXOXOXOXOXOXOXOXOXOXOXOXOXOXOX",
"OXOXOXOXOXOXOXOXOXOXOXOXOXOXOXOXOXOXOXOXOXOXOX9 6 z z T ~.^.E.3 $.Q.'.U.} w l ' f.OXOXOXOXOXOXOXOXOXOXOXOXOXOXOXOXOXOXOXOXOXOXOX",
"OXOXOXOXOXOXOXOXOXOXOXOXOXOXOXOXOXOXOXOXOXOXOX2 9 l l V a y i $ i f k j w $ 6 ' h.OXOXOXOXOXOXOXOXOXOXOXOXOXOXOXOXOXOXOXOXOXOXOX",
"OXOXOXOXOXOXOXOXOXOXOXOXOXOXOXOXOXOXOXOXOXOXOX4 t 0 z 0 * $ $ $ $ . # * * + & d.OXOXOXOXOXOXOXOXOXOXOXOXOXOXOXOXOXOXOXOXOXOXOXOX",
"OXOXOXOXOXOXOXOXOXOXOXOXOXOXOXOXOXOXOXOXOXOXOXOXi X % - * - - - * * * y y + + R OXOXOXOXOXOXOXOXOXOXOXOXOXOXOXOXOXOXOXOXOXOXOXOX",
"OXOXOXOXOXOXOXOXOXOXOXOXOXOXOXOXOXOXOXOXOXOXOXOX$ X $ - - - - - $ * * * $ $ $ V OXOXOXOXOXOXOXOXOXOXOXOXOXOXOXOXOXOXOXOXOXOXOXOX",
"OXOXOXOXOXOXOXOXOXOXOXOXOXOXOXOXOXOXOXOXOXOXOX3 * $ - - y y - $ . * i i 3 & - ] OXOXOXOXOXOXOXOXOXOXOXOXOXOXOXOXOXOXOXOXOXOXOXOX",
"OXOXOXOXOXOXOXOXOXOXOXOXOXOXOXOXOXOXOXOXOXOXOX1 - i p p a u - $ + . $ i p - 3 V OXOXOXOXOXOXOXOXOXOXOXOXOXOXOXOXOXOXOXOXOXOXOXOX",
"OXOXOXOXOXOXOXOXOXOXOXOXOXOXOXOXOXOXOXOXOXOXOX3 $ $ - 3 y * - % . . . + - - - r OXOXOXOXOXOXOXOXOXOXOXOXOXOXOXOXOXOXOXOXOXOXOXOX",
"OXOXOXOXOXOXOXOXOXOXOXOXOXOXOXOXOXOXOXOXOXOXOXe - $ - - * * $ OX. . $ $ $ $ - 3 OXOXOXOXOXOXOXOXOXOXOXOXOXOXOXOXOXOXOXOXOXOXOXOX",
"OXOXOXOXOXOXOXOXOXOXOXOXOXOXOXOXOXOXOXOXOXOXOX& = - - - = =   OX  . $ $ $ - - w OXOXOXOXOXOXOXOXOXOXOXOXOXOXOXOXOXOXOXOXOXOXOXOX",
"OXOXOXOXOXOXOXOXOXOXOXOXOXOXOXOXOXOXOXOXOXOXX % y y - - * $ OXOXOX$ . $ $ = - - O OXOXOXOXOXOXOXOXOXOXOXOXOXOXOXOXOXOXOXOXOXOXOX",
"OXOXOXOXOXOXOXOXOXOXOXOXOXOXOXOXOXOXOXOXOXOXo + * - = - $ $ OXOXOX$ . $ = * - = . OXOXOXOXOXOXOXOXOXOXOXOXOXOXOXOXOXOXOXOXOXOXOX",
"OXOXOXOXOXOXOXOXOXOXOXOXOXOXOXOXOXOXOXOXOXOX@ X * y i - $ OXOXOXOX+ . $ $ - = * o OXOXOXOXOXOXOXOXOXOXOXOXOXOXOXOXOXOXOXOXOXOXOX",
"OXOXOXOXOXOXOXOXOXOXOXOXOXOXOXOXOXOXOXOXOXOX5 $ = * - $ $ OXOXOXOX  . $ $ = - = o OXOXOXOXOXOXOXOXOXOXOXOXOXOXOXOXOXOXOXOXOXOXOX",
"OXOXOXOXOXOXOXOXOXOXOXOXOXOXOXOXOXOXOXOXOXOX% $ u - = $ OXOXOXOXOX  . $ $ $ = = + OXOXOXOXOXOXOXOXOXOXOXOXOXOXOXOXOXOXOXOXOXOXOX",
"OXOXOXOXOXOXOXOXOXOXOXOXOXOXOXOXOXOXOXOXOXOX< % - y - - OXOXOXOXOXOX$ $ - a i w $ OXOXOXOXOXOXOXOXOXOXOXOXOXOXOXOXOXOXOXOXOXOXOX",
"OXOXOXOXOXOXOXOXOXOXOXOXOXOXOXOXOXOXOXOXOXOX4 - i p i % OXOXOXOXOXOX# $ $ % y * o OXOXOXOXOXOXOXOXOXOXOXOXOXOXOXOXOXOXOXOXOXOXOX",
"OXOXOXOXOXOXOXOXOXOXOXOXOXOXOXOXOXOXOXOXOXO 3 $ = - $ X OXOXOXOXOXOX. $ * * - - + OXOXOXOXOXOXOXOXOXOXOXOXOXOXOXOXOXOXOXOXOXOXOX",
"OXOXOXOXOXOXOXOXOXOXOXOXOXOXOXOXOXOXOXOXOX@ $ - 3 - - OXOXOXOXOXOXOX  $ * y - - % OXOXOXOXOXOXOXOXOXOXOXOXOXOXOXOXOXOXOXOXOXOXOX",
"OXOXOXOXOXOXOXOXOXOXOXOXOXOXOXOXOXOXOXOXOX& - - 3 - - OXOXOXOXOXOXOXOX$ $ $ y - $ OXOXOXOXOXOXOXOXOXOXOXOXOXOXOXOXOXOXOXOXOXOXOX",
"OXOXOXOXOXOXOXOXOXOXOXOXOXOXOXOXOXOXOXOXOX1 $ & = $ $ OXOXOXOXOXOXOXOX$ y $ * - 5 OXOXOXOXOXOXOXOXOXOXOXOXOXOXOXOXOXOXOXOXOXOXOX",
"OXOXOXOXOXOXOXOXOXOXOXOXOXOXOXOXOXOXOXOXOXw * * = u OXOXOXOXOXOXOXOXOX$ * y y * - OXOXOXOXOXOXOXOXOXOXOXOXOXOXOXOXOXOXOXOXOXOXOX",
"OXOXOXOXOXOXOXOXOXOXOXOXOXOXOXOXOXOXOXOXOXi - $ % = OXOXOXOXOXOXOXOXOX+ - - y - % OXOXOXOXOXOXOXOXOXOXOXOXOXOXOXOXOXOXOXOXOXOXOX",
"OXOXOXOXOXOXOXOXOXOXOXOXOXOXOXOXOXOXOXOXOXi - u - . $ OXOXOXOXOXOXOXOXX y y * $ $ OXOXOXOXOXOXOXOXOXOXOXOXOXOXOXOXOXOXOXOXOXOXOX",
"OXOXOXOXOXOXOXOXOXOXOXOXOXOXOXOXOXOXOXOXOXw * $ $ = OXOXOXOXOXOXOXOXOXX $ - y 3 3 OXOXOXOXOXOXOXOXOXOXOXOXOXOXOXOXOXOXOXOXOXOXOX",
"OXOXOXOXOXOXOXOXOXOXOXOXOXOXOXOXOXOXOXOXOXs w 3 i T OXOXOXOXOXOXOXOXOXOX3 - f #.OXOXOXOXOXOXOXOXOXOXOXOXOXOXOXOXOXOXOXOXOXOXOXOX",
"OXOXOXOXOXOXOXOXOXOXOXOXOXOXOXOXOXOXOXOXOXs h w J OXOXOXOXOXOXOXOXOXOXOXp - k | OXOXOXOXOXOXOXOXOXOXOXOXOXOXOXOXOXOXOXOXOXOXOXOX",
"OXOXOXOXOXOXOXOXOXOXOXOXOXOXOXOXOXOXOXOXOXK %.J ;.OXOXOXOXOXOXOXOXOXOXOXw $ Y -.5.OXOXOXOXOXOXOXOXOXOXOXOXOXOXOXOXOXOXOXOXOXOXOX",
"OXOXOXOXOXOXOXOXOXOXOXOXOXOXOXOXOXOXOXOXOX| 3...6.OXOXOXOXOXOXOXOXOXOXOX3 % f -.3.OXOXOXOXOXOXOXOXOXOXOXOXOXOXOXOXOXOXOXOXOXOXOX",
"OXOXOXOXOXOXOXOXOXOXOXOXOXOXOXOXOXOXOXOXP I +.O.>.OXOXOXOXOXOXOXOXOXOXOX3 - 3 f Y &.,.OXOXOXOXOXOXOXOXOXOXOXOXOXOXOXOXOXOXOXOXOX",
"OXOXOXOXOXOXOXOXOXOXOXOXOXOXOXOXOXOXOXO.+.i.i...d.OXOXOXOXOXOXOXOXOXOXOXd 4 4 4 d ( +.z.OXOXOXOXOXOXOXOXOXOXOXOXOXOXOXOXOXOXOXOX",
"OXOXOXOXOXOXOXOXOXOXOXOXOXOXOXOXOXOXOXP ..O.i.d.n.OXOXOXOXOXOXOXOXOXOXOXd #.I V P T O.,.OXOXOXOXOXOXOXOXOXOXOXOXOXOXOXOXOXOXOXOX",
"OXOXOXOXOXOXOXOXOXOXOXOXOXOXOXOXOXOXOXOXOXOXOXOXOXOXOXOXOXOXOXOXOXOXOXOXOXOXOXOXOXOXOXOXOXOXOXOXOXOXOXOXOXOXOXOXOXOXOXOXOXOXOXOX",
"OXOXOXOXOXOXOXOXOXOXOXOXOXOXOXOXOXOXOXOXOXOXOXOXOXOXOXOXOXOXOXOXOXOXOXOXOXOXOXOXOXOXOXOXOXOXOXOXOXOXOXOXOXOXOXOXOXOXOXOXOXOXOXOX"
};
