/* XPM */
static char *d4470b717f7c49fa9d9f6e15d2ce417dU8pDhaWJSTRem3sr[] = {
/* columns rows colors chars-per-pixel */
"64 64 247 2 ",
"   c #7F1E27",
".  c #713541",
"X  c #9D1D1C",
"o  c #A50C1F",
"O  c #A8151D",
"+  c #B4171F",
"@  c #971E26",
"#  c #8E1A31",
"$  c #AA0625",
"%  c #A91828",
"&  c #B41B25",
"*  c #BC1B26",
"=  c #BC132B",
"-  c #B41B2D",
";  c #BC1C2D",
":  c #B51427",
">  c #AA1735",
",  c #B51D33",
"<  c #BA1C38",
"1  c #BD0A31",
"2  c #99232A",
"3  c #992A35",
"4  c #9B363B",
"5  c #A4232B",
"6  c #AB2428",
"7  c #B5232A",
"8  c #A42334",
"9  c #AD2334",
"0  c #A92A36",
"q  c #B42433",
"w  c #BC2435",
"e  c #BC233B",
"r  c #B32A3A",
"t  c #B92938",
"y  c #A73338",
"u  c #B83539",
"i  c #AD322B",
"p  c #CA0C25",
"a  c #C31D26",
"s  c #C41B2B",
"d  c #CC1D2D",
"f  c #C81529",
"g  c #D31B2C",
"h  c #D7182C",
"j  c #C00C32",
"k  c #D80C34",
"l  c #C41C34",
"z  c #CC1C32",
"x  c #C31C3A",
"c  c #CC1A3B",
"v  c #C91434",
"b  c #DC1534",
"n  c #D41B33",
"m  c #DB1C34",
"M  c #D31D3C",
"N  c #DE1B3B",
"B  c #D01530",
"V  c #D60E2B",
"C  c #E5182C",
"Z  c #E61939",
"A  c #C3252E",
"S  c #CB222E",
"D  c #D5212E",
"F  c #C52333",
"G  c #CD2334",
"H  c #C4253C",
"J  c #CB233C",
"K  c #CC2A3C",
"L  c #C82B39",
"P  c #D32234",
"I  c #DB243B",
"U  c #D42B3C",
"Y  c #D6253A",
"T  c #C9333B",
"R  c #DB3039",
"E  c #E4243B",
"W  c #F62938",
"Q  c #D7131F",
"!  c #A8423D",
"~  c #9B3B46",
"^  c #A62A43",
"/  c #B92943",
"(  c #A93843",
")  c #B63B44",
"_  c #BC3A43",
"`  c #BB3448",
"'  c #C91A40",
"]  c #E91C41",
"[  c #F31F45",
"{  c #C72944",
"}  c #D72544",
"|  c #C43442",
" . c #C23C46",
".. c #CB3949",
"X. c #D43647",
"o. c #CB3B51",
"O. c #D93958",
"+. c #E52948",
"@. c #E73545",
"#. c #E23855",
"$. c #974753",
"%. c #AA4748",
"&. c #B74549",
"*. c #AD4C54",
"=. c #BA4B59",
"-. c #B65659",
";. c #AA575A",
":. c #9C6056",
">. c #B6605D",
",. c #AB655D",
"<. c #BB5764",
"1. c #B15462",
"2. c #9C777E",
"3. c #B96767",
"4. c #AE6C70",
"5. c #C54448",
"6. c #D54448",
"7. c #CC4A56",
"8. c #C74858",
"9. c #D34A5C",
"0. c #D74856",
"q. c #C6545B",
"w. c #D4565C",
"e. c #D2524F",
"r. c #E34455",
"t. c #E7535C",
"y. c #E6474B",
"u. c #CE625F",
"i. c #C84C64",
"p. c #CB5266",
"a. c #C75968",
"s. c #DC5C6B",
"d. c #D75865",
"f. c #D05877",
"g. c #E64A63",
"h. c #EB5A65",
"j. c #E65868",
"k. c #F6516E",
"l. c #E55E73",
"z. c #EC5975",
"x. c #F85B75",
"c. c #F44B68",
"v. c #CD646B",
"b. c #C96567",
"n. c #D4636B",
"m. c #DA656D",
"M. c #D16767",
"N. c #C86673",
"B. c #D56B78",
"V. c #C77778",
"C. c #D67276",
"Z. c #E36574",
"A. c #F8727E",
"S. c #E96B70",
"D. c #E3867F",
"F. c #D5788D",
"G. c #E97784",
"H. c #FA788E",
"J. c #F97E94",
"K. c #BC8D8E",
"L. c #D48487",
"P. c #D39194",
"I. c #E6838A",
"U. c #FD848D",
"Y. c #E58898",
"T. c #FD8394",
"R. c #FA879A",
"E. c #E89699",
"W. c #FB969A",
"Q. c #E3908C",
"!. c #D99EA4",
"~. c #FE8CA1",
"^. c #FE98A5",
"/. c #EA99A3",
"(. c #DEBBBF",
"). c #EBA5A9",
"_. c #FAA7AC",
"`. c #FFB7AA",
"'. c #FFA9B4",
"]. c #FFB2B3",
"[. c #FEBBBC",
"{. c #F8B5BB",
"}. c #EAB4B7",
"|. c #FFC6BC",
" X c #FFADC3",
".X c #FDBDC3",
"XX c #FFB9C6",
"oX c #FFBFD1",
"OX c #FEC3C6",
"+X c #FFC5CB",
"@X c #FECDCC",
"#X c #FDC9C6",
"$X c #FFD8CD",
"%X c #FFCCD2",
"&X c #FFC8D7",
"*X c #FFD4D3",
"=X c #FFDBD5",
"-X c #FFD4DB",
";X c #FFDCDC",
":X c #EFD1D9",
">X c #FFE3D4",
",X c #FFE3DB",
"<X c #FFEADB",
"1X c #FFF0DE",
"2X c #FFDBE1",
"3X c #FFDEEA",
"4X c #FCD7E5",
"5X c #FFDBF2",
"6X c #FFE3E4",
"7X c #FFEBE5",
"8X c #FFE4EB",
"9X c #FFEBEB",
"0X c #F7EFED",
"qX c #E7FAEC",
"wX c #FFF3E5",
"eX c #FFF3EC",
"rX c #FEFCED",
"tX c #F4F6EB",
"yX c #FFE6F1",
"uX c #FFEDF3",
"iX c #FFEEFA",
"pX c #ECFFFD",
"aX c #EDFBF5",
"sX c #F5F5F4",
"dX c #FFF4F4",
"fX c #F4FEF5",
"gX c #FEFBF5",
"hX c #F5F6FA",
"jX c #FFF4FB",
"kX c #F5FEFD",
"lX c #FFFAFE",
"zX c #FBFFFD",
"xX c #F9FFFF",
"cX c #FBFFFF",
"vX c #FAFFFE",
"bX c #F9FEFD",
"nX c #FFFDFD",
"mX c #FFFFFD",
"MX c #FFFDFF",
"NX c #FFFCFF",
"BX c #FCFFFF",
"VX c #FFFEFF",
"CX c white",
"ZX c #FEFFFF",
"AX c #FDFFFD",
"SX c #FEFEFE",
"DX c #EBE6EA",
/* pixels */
"CXCXCXCXCXCXCXCXCXCXCXCXCXCXCXCXCXCXCXCXCXzXkXzXCXCXkXkXnXjXCXCXnXgXnXjXjXjXjXnXnXnXCXzXCXCXjXjXCXhXgXgXnXnXnXCXnXnXnXnXCXzXkXkX",
"CXCXCXCXCXCXCXCXCXCXCXCXCXCXCXCXnXnXnXnXCXCXzXzXnXCXkXkXnXnXCXCXnXnXCXnXnXjXjXnXfXgXzXzXzXhXnXnXjXnXCXCXzXnXCXgXnXnXnXnXCXzXkXkX",
"CXCXCXCXCXCXCXCXCXCXCXCXCXCXCXCXCXnXnXnXnXnXnXnXnXnXzXzXCXnXzXkXfXkXzXzXzXCXCXzXfXfXzXzXzXgXzXCXjXgXCXCXgXnXCXhXnXnXnXnXCXzXzXkX",
"CXCXCXCXCXCXCXCXCXCXCXCXCXCXCXCXnXnXgXnXnXnXgXnXnXgXCXCXCXgXCXnXzXkXzXzXkXkXzXkXfXaXkXsXnXgXdXuXnXjXdXnXnXsXCXCXnXCXnXnXCXCXzXzX",
"CXCXCXCXCXCXCXCXCXCXCXCXCXCXCXCXnXzXzXnXnXgXnXnXnXnXgXnXgXnXnXnXCXCXnXnXfXkXzXkXqXqXgXnXrXgXsXzX6XjXjXnXCXsXCXCXCXCXnXnXCXCXCXzX",
"CXCXCXCXCXCXCXCXCXCXCXCXCXCXCXCXnXzXzXfXzXzXzXCXzXnXnXgXgXnXgXjXjXjXjXnXgXfXzXzXrXrXgXdXeXeX{.P.2.4XnXjXCXCXCXkXCXCXCXnXCXCXCXCX",
"CXCXCXCXCXCXCXCXCXCXCXCXCXCXCXCXCXCXzXzXCXzXCXzXzXzXnXnXCXCXnXnXnXjXnXnXfXfXkXzXwXwXuX{.I.d.` ^ . :XCXdXnXnXzXzXzXCXCXCXnXCXCXCX",
"CXCXCXCXCXCXCXCXCXCXCXCXCXCXCXCXCXCXCXCXCXCXnXCXzXkXnXnXzXkXkXCXnXnXCXnXrXrXgXgX@X_.{.~ H = J 9 . yXnXdXnXzXzXkXzXzXCXCXnXnXnXCX",
"CXCXCXCXCXCXCXCXCXCXCXCXCXCXCXCXnXnXnXjXnXjXnXnXCXkXzXkXpXpXpXpXpXpXzXuXeX$X8XY.@ O.'.# { Y e G.-XuXnXjXjXzXzXkXzXzXCXCXnXnXnXnX",
"CXCXCXCXCXCXCXCXCXCXCXCXCXCXCXCXCXjXjXnXCXCXCXhXDXCXDXkXzXzXkXpXkXaXCX(.;.b.8Xa.' #. X<.r.* u .X8XjXjXnXCXzXzXzXzXCXCXnXnXnXCXCX",
"CXCXCXCXCXCXCXCXCXCXCXCXCXCXCXCXnXjXnXnXsXkXkXkXCXCXzXCXjX3X5XiXjXjXiX4.2 5.2XF.: ..8X3X'.w i |.uXnXnXnXzXzXkXzXzXCXCXCXnXCXCXCX",
"CXCXCXCXCXCXCXCXCXCXCXCXCXCXCXnXCXjXnXCXkXkXpXfXjX9XnXuX5XF.~ &XjX5XiX4.5 j.6XC.- 9.9XdXW.% y #XdXnXnXgXzXzXzXzXCXCXnXCXCXCXCXzX",
"CXCXCXCXCXCXCXCXCXCXCXCXCXCXCXCXgXCXdXdXnXgXzXgXuX2XeX9X<.> ^ &XiXjXiX3.6 6.;Xv.$ 7.9XdX^.- y [.dXgXhXCXzXzXzXzXCXnXCXnXnXzXzXzX",
"CXCXCXCXCXCXCXCXCXCXCXCXCXCXCXnXgXgXdXdXgX7XgX(.1.F.tXP.> O.^ 4XuXnX8X3.7 ..6XS., 7.9XgX^., u OXjXzXzXCXzXzXzXzXCXCXnXnXCXCXCXkX",
"CXCXCXCXCXCXCXCXCXCXCXCXCXCXCXnXrXrX0X,X{.).4X=.$ z.6X4.0 _ 6X7XgXdX8XC.+ y.@Xd.- =.9XdX^.> 8 [.gXzXzXzXkXkXzXCXCXnXnXnXCXzXzXkX",
"CXCXCXCXCXCXCXCXCXCXCXCXCXCXnXnX7X}.L.%.# *.3X8.c j.7X:.8 m.eXgXeXdXuX-.7 R ..e ; 8.jXyX'.r y +XgXfXkXkXkXkXzXCXnXnXnXnXCXzXzXkX",
"CXCXCXCXCXCXCXCXCXCXCXCXCXCXCXjX/.@ i 6 5 -.8Xa.x l.8X,.2 n.uXnXrXwXeX,.F E j ' c 9.8X8X'.0 3 +XdXfXzXzXkXkXzXjXCXnXjXnXzXkXzXCX",
"CXCXCXCXCXCXCXCXCXCXCXCXCXCXCXdXR.q i 5.M._.yX=.> z.8X;.% Z.iX4XE.E.eX3.& f O...v o.yXdX^.9 ( XXgXfXsXhXkXpXzXCXnXnXjXgXkXpXzXCX",
"CXCXCXCXCXCXCXCXCXCXCXCXCXCXzXiX~.9 y `.7XeX4Xp.j x.8X-.O Z.3XF.% o.7X3.w r.%XG.l o.,XdX~.r y ].eXdXgXjXzXkXhXzXCXnXjXnXkXkXzXCX",
"CXCXCXCXCXCXCXCXCXCXCXCXCXCXCXuXR.9 i |.wX9X8Xp.j x.6X-.O h.5Xf.1 c.6X3.& e.7X3.: j.eXdX^.7 y *XeXdXdXuXjXhXzXCXzXCXnXnXkXkXCXCX",
"CXCXCXCXCXCXCXCXCXCXCXCXCXCXCXiX~.% u =X7X.X8Xp.: x.2X>.6 h.5Xf.< c.4X3.& 6.7XV.O 0.<XwX_.7 u ].6X*X2XyXjXCXjXkXzXCXnXnXkXkXCXCX",
"CXCXCXCXCXCXCXCXCXCXCXCXCXCXCXiXR.t A j.*.V.yX=.6 l.8X-.7 j.5XB.< x.8XN.6 6.,XV.& ..7XeXW.7 u e.&.3 <. XjXCXnXkXkXzXnXnXzXzXCXnX",
"CXCXCXCXCXCXCXCXCXCXCXCXCXCXCXdX^.- g Y 3 N.8X-.2 m.<X-.6 t.2Xa.$ k.8X3.X e.6XC.& y.%X[.x.* n U ..% 0 N.8XgXCXCXzXzXCXnXzXzXnXnX",
"CXCXCXCXCXCXCXCXCXCXCXCXCXCXCXuXE.- +.j 3 Y.9X;.2 m.7X*.7 t.-Xf.< g.8Xv.6 6.2XZ.a K o.8 7 I Z b n G H ( 6XgXCXzXzXkXCXCXCXnXnXnX",
"CXCXCXCXCXCXCXCXCXCXCXCXCXCXCXjXR.q w U.+XuX9X-.9 w.2Xa.O t.2X8.> z.4Xd.; @.k.+.h g H / J n Z Z b P z ` #XnXnXkXzXkXCXzXCXCXCXnX",
"CXCXCXCXCXCXCXCXCXCXCXCXCXCXzXdXW.5 _ +XdXjX9X-.O x.3X%.t 0.r.H > d.2XC.+ h [ k +.I { { H e v f m Z n ` OXgXgXCXzXzXkXCXCXCXnXnX",
"CXCXCXCXCXCXCXCXCXCXCXCXCXzXCXdXW.2 y *XnXdX9Xd.: j.5X1.2 w 1 +.' d.8X`.T g Z Z V B ' ^ ( 3.E.].P m n r #XgXdXCXzXkXzXzXnXnXnXnX",
"CXCXCXCXCXCXCXCXCXCXCXCXCXCXCXdXQ.0 ( *XgXjX9X&.; j.8X!.~ 0 } M x d.9X>X&.Y M +.l ..f.^.*XeXeX6X6.C m 9 =XnXsXzXCXzXzXCXCXnXnXCX",
"CXCXCXCXCXCXCXCXCXCXCXCXCXCXCXdXQ.i ) &XjXjXyX7.- G.dXdX@X'.t.c x d.wX>Xu A F 8.W.|.9XdXdXdXgXuXe.D n 0 6XnXCXnXnXCXzXzXnXnXCXkX",
"CXCXCXCXCXCXCXCXCXCXCXCXCXCXCXdXW.5 r oXjXjX-X9.o d.uXgXeX6X9.H c m.eX$Xi A L f.wXrXnXnXgXnXnXuXe.S f 8.7XfXCXCXnXCXCXCXnXnXCXkX",
"CXCXCXCXCXCXCXCXCXCXCXCXCXCXCXdXW.& ) -XnXjXE.@ K l.jXCXwX9X8.H l d.7X$Xu z { Z.<XrXCXkXjXjXjXyXu S s J.dXfXnXCXnXnXCXCXnXCXzXkX",
"CXCXCXCXCXCXCXCXCXnXzXgXgXjXdX8XU.+ t XXjXjXE.8 l Z.8XsXgXeX=.w f s.eX=X6.d c z.eXrXeXjXjX8X}.N.6 L | +XgXkXjXjXnXnXnXCXnXCXzXkX",
"CXnXnXnXzXzXCXnXnXnXfXrXeX9X_.w.A S S _ ;XdXG.r x s.jXgXkXeX7.d a d.9X;X_ P B z.uXdX=X].C. .L & F u W.6XgX0XnXjXCXCXnXnXzXzXzXzX",
"nXnXnXnXkXkXnXnXgXgXtXrX7XB.% G P R g + Q.6XG.e F s.uXkXpXgX7.g a w.eX2X_ G B z.yX#X&.7 + a g R P * &.L.dXnXjXjXCXzXnXnXzXkXCXCX",
"nXnXCXCXzXkXCXnXCXgXgXwXL.0 t K a R E * a.6XT.e < s.uXnXkXsX7.d a w.rX,X) J v Z.yX*X0 G I @.* A h m - ( -XnXjXnXzXzXnXCXzXCXnXnX",
"gXnXCXCXkXzXCXjXgXdXdX#X3 9 X.& F d m l =.6XJ.> w l.uXjXzXjX7.S A w.tX2X) F ; Z.6X@Xq m Z z 6 T g Z Y 8 .XdXsXCXkXzXCXCXCXCXnXjX",
"nXgXCXzXzXkXCXnXjXgXdXL.r H % t.A.G b s =.3XT.q w s.yXjXCXiX7.d a d.uX2X) L ; m.eX*XL Z k J _.|.@.C Z , .XsXnXkXkXzXCXnXCXnXnXjX",
"nXnXzXkXkXzXCXnXCXgXuXa.{ } q XX+X..} l i.3XT.e F s.yXjXnXiX7.d s d.uX2Xu G ; m.eX#XK Z ] X.,XwXt.p C < {.gXzXkXzXCXCXCXnXnXnXCX",
"gXnXzXkXkXCXnXCXzXjXuXp.' M  .*X4X) t q 1.8XH.> w s.uXjXnXiX7.d g g.iX2X| D a m.rX*Xe b N / 7X1XS.a R w }.tXzXfXCXnXnXnXCXCXzXkX",
"nXCXzXkXkXCXnXCXkXgXyXi.' v 5.=X2X%.3 4 ;.9XH.q w d.uXjXCXuX9.g B j.uX;X| D d h.eX,Xq N } ` 7XwXM.7 I ; |.fXkXkXCXnXnXnXCXCXkXkX",
"jXnXzXkXkXzXCXCXkXgXuXp.c c %.>X9X4.V.}.eX9XT., ; n.dXgXCXdX9.m f j.uX8XT d m h.dX>X0 n } / 9X7Xu.w ] , }.gXzXgXnXnXnXnXCXzXkXpX",
"jXgXCXkXzXCXCXCXkXgXuXp.c J %.<XtX;XeXeXwXeXR., w n.dXsXkXiX0.n B s.8X;X5.g V h.9X,X) z c o.2X6X .l b ' *XgXfXzXnXnXCXnXCXzXkXkX",
"nXgXCXkXCXnXnXnXkXnXuXa.x H %.<XdXgXrXrXtXdXR.% w M.dXfXkXjX9.B s M.dX6X5.d p x.8X;X&.z } #.W.A.s Z ] { -XgXnXnXCXnXnXnXCXCXzXzX",
"nXnXzXzXCXnXnXnXkXgXuXa.x { %.<XgXnXeXgXgXdXJ., q M.dXfXzXjX9.B * d.gX6X_ d f x.9X=X5.s N Y { o } N k z.3XnXnXCXnXnXnXnXCXzXCXCX",
"nXnXzXzXCXnXjXnXCXnXuX<.< H &.,XdXCXnXgXgX8XJ.e q M.eXfXCXiX9.z d w.dX;X0 P M j.uX*X5.v n I U K } = /  XiXCXjXCXzXCXnXnXCXCXCXCX",
"nXCXzXzXnXnXnXjXCXgXuX<./ H &.,XnXhXtX9XgXuXJ.e q M.eXgXnXjX9.z a t.9X8Xu P v l.uX=X5.G I m A L % 8.Y.yXnXkXCXzXzXCXnXnXCXzXCXnX",
"zXfXkXzXCXnXjXjXnXjXjX<.< J  .;XgXCXnXjX8XuXH.< q b.dXdXnXiX8.G h y.&X'.t n = H.uX6X_ s P d + u v.).8XgXqXpXzXzXzXCXnXnXCXkXnXnX",
"nXzXzXkXCXCXjXnXnXgXuXa.< c  .;XuXdX+XF.4.5XJ.< q M.9XuXjXyX9.B C h l.=.% X.q _.yX6X%.% u w.U.$XeXgXgXfXpXpXkXCXzXCXnXnXzXzXzXCX",
"nXnXzXzXzXzXCXCXzXgXyXp.} v 5.*X<X;./ > 1.yXR.> r w.wX7X=XOXg.p C W a * ..5 %.-XdX;XK.P.-XuXeXdXgXnXnXnXkXzXCXCXCXCXCXCXCXzXCXCX",
"nXCXCXzXkXkXzXzXkXgXiX8.l l 5.>X1X%.x c i.4XT.8 e h.].D.%.y 0.+.C Q D T 6 ( E.uX9XgXDXsXCXCXdXjXCXCXCXCXCXCXCXCXCXCXCXCXCXCXCXCX",
"CXCXCXzXCXnXnXCXzXgXuX=.H L %.=X>X4 J l q.8XT.- M n s : q 7.H.% G L 6.0 3 P.8XdXjXgXnXnXCXsXjXCXCXCXCXCXCXCXCXCXCXCXCXCXCXCXCXCX",
"zXzXCXCXnXnXnXCXCXeXuX<.u q ! <X>X&.U l q.6XU.: Z [ E I X.9.'.%.y 2 3 N..X9XjXuXnXnXjXzXCXnXnXnXCXCXCXCXCXCXCXCXCXCXCXCXCXCXCXCX",
"zXCXnXnXnXjXjXCXnXeXeX<.w - &.$X[.T a ; M.;XU.e Y b N v % -.6X=XE.{.;XuXdXuXuXnXnXzXzXzXzXnXCXnXCXCXCXCXCXCXCXCXCXCXCXCXCXCXCXCX",
"nXCXnXnXnXnXnXnXnXgXdX<.< Y L A.t.A d : I.6XU.@ ..; ;  .a.).gXwXrXdXdXdXyXnXCXhXzXhXzXkXhXCXnXCXCXCXCXCXCXCXCXCXCXCXCXCXCXCXCXCX",
"CXnXnXnXnXnXCXCXfXgX8X<.} [ b p d I K  .].7XI.3 ~ b.E.=X7XeXgXgXnX0XjXCXCXCXzXzXkXkXzXzXCXCXzXzXCXCXCXCXCXCXCXCXCXCXCXCXCXCXCXCX",
"CXCXjXnXnXnXCXzXzXgX9XN.< b Z E Y H , v.eXeX).P.;XeXeXgXgXnXkXkXzXzXzXkXkXkXzXzXkXkXzXjXkXzXsXCXCXCXCXCXCXCXCXCXCXCXCXCXCXCXCXCX",
"CXCXjXnXCXCXzXzXkXgX9X/., ' +.x 9 y V.*XgXrX9XgXgXfXgXnXnXnXnXCXzXzXkXzXzXzXzXCXCXzXCXnXnXzXgXnXCXCXCXCXCXCXCXCXCXCXCXCXCXCXCXCX",
"zXCXCXnXzXkXzXzXfXnXgX+X=.> / ` <.).uXdXgXfXdXsXfXkXkXCXnXnXjXjXCXzXzXzXzXCXCXCXnXnXnXnXnXgXnXgXCXCXCXCXCXCXCXCXCXCXCXCXCXCXCXCX",
"kXkXCXCXzXkXzXCXCXfXnXgX&X).).+X7XdXjXdXkXkXzXkXkXkXCXjXjXjXnXnXCXCXnXnXnXnXCXCXnXnXnXnXnXgXgXnXnXCXCXCXCXCXCXCXCXCXCXCXCXCXCXCX",
"kXkXCXCXzXkXCXCXCXgXsXnXdXdXgXgXgXdXuXnXzXkXkXkXkXzXjXjXjXnXCXCXCXCXnXnXnXnXnXnXnXnXgXgXgXnXnXnXnXCXCXCXCXCXCXCXCXCXCXCXCXCXCXCX",
"kXzXCXCXkXkXCXnXjXCXzXaXjXgXkXfXtXnXgXnXCXkXzXkXkXCXjXjXCXCXkXkXCXnXgXnXnXnXnXnXnXnXnXnXnXnXnXCXCXCXCXCXCXCXCXCXCXCXCXCXCXCXCXCX",
"CXCXCXCXkXkXCXnXjXjXnXCXCXzXkXkXnXnXjXjXzXzXnXCXCXnXjXgXnXkXkXzXnXnXnXnXgXnXnXgXCXCXnXnXnXCXCXCXCXCXCXCXCXCXCXCXCXCXCXCXCXCXCXCX",
"jXnXnXnXkXpXCXnXjXjXnXjXjXjXzXhXhXhXnXnXkXhXnXCXnXnXnXnXpXpXCXCXnXnXnXnXnXnXnXzXzXzXzXCXCXCXnXCXCXCXCXCXCXCXCXCXCXCXCXCXCXCXCXCX",
"nXnXjXnXkXpXzXnXjXiXjXjXnXjXnXCXCXCXnXzXkXkXnXnXnXnXgXgXaXpXnXCXnXnXnXzXzXzXzXkXkXzXzXCXCXCXnXCXCXCXCXCXCXCXCXCXCXCXCXCXCXCXCXCX"
};
